<svg width="841" height="588" viewBox="0 0 841 588" fill="none" xmlns="http://www.w3.org/2000/svg">
<path d="M46.1425 495.368H40.5105V454.6H11.2625L11.0705 468.168C10.8785 482.952 9.0225 495.368 3.6465 495.368H1.6625V510.664H7.6785V501H40.1265V510.664H46.1425V495.368ZM33.9825 495.368H11.9665C14.8465 491.464 17.2145 483.08 17.4065 470.28L17.5345 460.232H33.9825V495.368ZM80.1905 466.568H57.2145L56.7025 478.344C55.9985 492.616 53.0545 495.944 49.9825 495.944H49.3425V501H50.4305C58.4305 501 61.4385 493.832 62.2705 479.944L62.7825 471.624H74.3665V501H80.1905V466.568ZM115.525 466.568H102.021C94.085 466.568 89.221 470.088 89.221 477.192C89.221 482.312 92.165 485.64 96.517 487.112L86.085 501H93.317L102.661 488.712C102.981 488.776 103.301 488.776 103.621 488.776H109.701V501H115.525V466.568ZM109.701 471.624V483.72H102.853C98.821 483.72 95.173 482.248 95.173 477.576C95.173 473.416 98.053 471.624 102.341 471.624H109.701ZM184.093 466.568H155.741V501H161.565V471.624H178.269V501H184.093V466.568ZM193.928 466.568V512.2H199.752V495.816C201.864 499.464 205.448 501.832 211.016 501.832C218.952 501.832 225.736 495.368 225.736 483.912C225.736 472.648 218.952 465.992 211.016 465.992C205.448 465.992 201.864 468.36 199.752 472.008V466.568H193.928ZM199.496 483.912C199.496 474.824 204.36 470.984 209.544 470.984C215.496 470.984 219.4 475.656 219.4 483.912C219.4 492.168 215.496 496.84 209.544 496.84C204.36 496.84 199.496 493 199.496 483.912ZM237.076 483.912C237.076 474.504 242.068 471.112 247.38 471.112C252.692 471.112 257.684 474.696 257.684 483.912C257.684 492.744 252.692 496.712 247.38 496.712C242.068 496.712 237.076 493.128 237.076 483.912ZM247.38 465.992C239.38 465.992 230.868 471.432 230.868 483.912C230.868 496.392 239.38 501.832 247.38 501.832C255.38 501.832 263.892 496.392 263.892 483.912C263.892 471.432 255.38 465.992 247.38 465.992ZM285.63 465.992C275.454 465.992 268.99 473.608 268.99 483.848C268.99 494.344 275.134 501.832 285.054 501.832C293.118 501.832 299.198 496.264 300.414 489.8H294.398C293.566 493.384 290.174 496.712 285.246 496.712C280.126 496.712 275.326 492.488 275.326 483.784C275.326 475.144 280.126 471.112 285.246 471.112C289.79 471.112 293.31 473.992 294.142 478.088H300.03C299.198 472.2 294.078 465.992 285.63 465.992ZM344.935 466.568H336.615L326.311 493.064L315.623 466.568H307.303V501H312.999V473.736L324.007 501H328.167L339.239 473.352V501H344.935V466.568ZM358.451 483.912C358.451 474.504 363.443 471.112 368.755 471.112C374.067 471.112 379.059 474.696 379.059 483.912C379.059 492.744 374.067 496.712 368.755 496.712C363.443 496.712 358.451 493.128 358.451 483.912ZM368.755 465.992C360.755 465.992 352.243 471.432 352.243 483.912C352.243 496.392 360.755 501.832 368.755 501.832C376.755 501.832 385.267 496.392 385.267 483.912C385.267 471.432 376.755 465.992 368.755 465.992ZM416.836 471.624V466.568H387.46V471.624H399.236V501H405.06V471.624H416.836ZM422.741 466.568V512.2H428.565V495.816C430.677 499.464 434.26 501.832 439.829 501.832C447.765 501.832 454.549 495.368 454.549 483.912C454.549 472.648 447.765 465.992 439.829 465.992C434.26 465.992 430.677 468.36 428.565 472.008V466.568H422.741ZM428.309 483.912C428.309 474.824 433.173 470.984 438.357 470.984C444.309 470.984 448.213 475.656 448.213 483.912C448.213 492.168 444.309 496.84 438.357 496.84C433.173 496.84 428.309 493 428.309 483.912ZM483.117 486.6C483.117 494.728 477.933 497.224 472.493 497.224C468.333 497.224 465.837 495.048 465.837 491.784C465.837 487.048 472.557 485.448 483.117 484.424V486.6ZM471.213 501.832C477.357 501.832 480.877 499.848 482.989 496.264C483.053 498.312 483.245 499.72 483.437 501H489.325C488.621 497.736 488.365 493.832 488.429 488.008L488.493 480.072C488.557 470.344 484.333 465.864 474.797 465.864C468.141 465.864 461.485 470.024 460.973 477.448H466.989C467.245 473.16 469.997 470.6 474.861 470.6C479.213 470.6 482.669 472.648 482.669 478.984V479.816C468.589 481.352 459.373 483.784 459.373 491.912C459.373 498.248 464.749 501.832 471.213 501.832ZM541.03 466.568H512.678V501H518.502V471.624H535.206V501H541.03V466.568ZM554.514 483.912C554.514 474.504 559.506 471.112 564.818 471.112C570.13 471.112 575.122 474.696 575.122 483.912C575.122 492.744 570.13 496.712 564.818 496.712C559.506 496.712 554.514 493.128 554.514 483.912ZM564.818 465.992C556.818 465.992 548.306 471.432 548.306 483.912C548.306 496.392 556.818 501.832 564.818 501.832C572.818 501.832 581.33 496.392 581.33 483.912C581.33 471.432 572.818 465.992 564.818 465.992ZM588.616 466.568V501H604.616C611.976 501 617.544 498.12 617.544 490.952C617.544 486.344 614.92 483.912 611.336 482.888C614.536 481.544 616.136 478.984 616.136 475.336C616.136 468.36 610.504 466.568 603.592 466.568H588.616ZM594.44 481.032V471.624H603.016C607.368 471.624 610.056 472.392 610.056 475.976C610.056 479.88 607.496 481.032 603.208 481.032H594.44ZM594.44 485.832H603.528C608.904 485.832 611.464 487.048 611.464 490.888C611.464 494.472 608.84 495.944 603.72 495.944H594.44V485.832ZM654.446 485.704C655.15 474.76 648.942 465.992 638.382 465.992C628.974 465.992 621.678 472.904 621.678 483.848C621.678 494.024 627.694 501.832 638.574 501.832C646.958 501.832 652.462 496.904 653.998 491.016H647.982C646.51 494.408 643.694 496.712 638.574 496.712C633.518 496.712 628.142 493.128 627.95 485.704H654.446ZM638.382 470.984C644.59 470.984 648.11 475.848 648.302 480.712H628.014C628.526 473.8 633.262 470.984 638.382 470.984ZM661.616 466.568V512.2H667.44V495.816C669.552 499.464 673.135 501.832 678.704 501.832C686.64 501.832 693.424 495.368 693.424 483.912C693.424 472.648 686.64 465.992 678.704 465.992C673.135 465.992 669.552 468.36 667.44 472.008V466.568H661.616ZM667.184 483.912C667.184 474.824 672.048 470.984 677.232 470.984C683.184 470.984 687.088 475.656 687.088 483.912C687.088 492.168 683.184 496.84 677.232 496.84C672.048 496.84 667.184 493 667.184 483.912ZM729.288 501V466.568H723.464V480.904H706.44V466.568H700.616V501H706.44V485.96H723.464V501H729.288ZM762.732 501H768.556V466.568H762.732L744.94 492.552V466.568H739.116V501H744.94L762.732 475.016V501ZM803.836 471.624V466.568H774.46V471.624H786.236V501H792.06V471.624H803.836ZM838.696 485.704C839.4 474.76 833.192 465.992 822.632 465.992C813.224 465.992 805.928 472.904 805.928 483.848C805.928 494.024 811.944 501.832 822.824 501.832C831.208 501.832 836.712 496.904 838.248 491.016H832.232C830.76 494.408 827.944 496.712 822.824 496.712C817.768 496.712 812.392 493.128 812.2 485.704H838.696ZM822.632 470.984C828.84 470.984 832.36 475.848 832.552 480.712H812.264C812.776 473.8 817.512 470.984 822.632 470.984ZM8.53625 586.2H11.5443C19.2883 586.2 20.9523 583.896 23.5123 576.472L35.8003 540.568H29.7203L21.2083 567.128L12.4403 540.568H5.97625L18.3923 575L18.1363 575.704C16.6003 581.08 14.7443 581.336 10.9043 581.336H8.53625V586.2ZM54.3488 539.992C44.1728 539.992 37.7088 547.608 37.7088 557.848C37.7088 568.344 43.8528 575.832 53.7728 575.832C61.8368 575.832 67.9168 570.264 69.1328 563.8H63.1168C62.2848 567.384 58.8928 570.712 53.9648 570.712C48.8448 570.712 44.0448 566.488 44.0448 557.784C44.0448 549.144 48.8448 545.112 53.9648 545.112C58.5088 545.112 62.0288 547.992 62.8608 552.088H68.7488C67.9168 546.2 62.7968 539.992 54.3488 539.992ZM100.305 545.624V540.568H70.9288V545.624H82.7048V575H88.5288V545.624H100.305ZM106.209 540.568V586.2H112.033V569.816C114.145 573.464 117.729 575.832 123.297 575.832C131.233 575.832 138.017 569.368 138.017 557.912C138.017 546.648 131.233 539.992 123.297 539.992C117.729 539.992 114.145 542.36 112.033 546.008V540.568H106.209ZM111.777 557.912C111.777 548.824 116.641 544.984 121.825 544.984C127.777 544.984 131.681 549.656 131.681 557.912C131.681 566.168 127.777 570.84 121.825 570.84C116.641 570.84 111.777 567 111.777 557.912ZM149.357 557.912C149.357 548.504 154.349 545.112 159.661 545.112C164.973 545.112 169.965 548.696 169.965 557.912C169.965 566.744 164.973 570.712 159.661 570.712C154.349 570.712 149.357 567.128 149.357 557.912ZM159.661 539.992C151.661 539.992 143.149 545.432 143.149 557.912C143.149 570.392 151.661 575.832 159.661 575.832C167.661 575.832 176.173 570.392 176.173 557.912C176.173 545.432 167.661 539.992 159.661 539.992ZM204.067 528.6C203.811 530.648 202.211 532.504 198.435 532.504C194.659 532.504 193.123 530.648 192.867 528.6H188.323C188.643 532.44 191.331 536.344 198.371 536.344C205.667 536.344 208.099 532.44 208.611 528.6H204.067ZM207.075 575H212.899V540.568H207.075L189.283 566.552V540.568H183.459V575H189.283L207.075 549.016V575ZM236.724 539.992C226.548 539.992 220.084 547.608 220.084 557.848C220.084 568.344 226.228 575.832 236.148 575.832C244.212 575.832 250.292 570.264 251.508 563.8H245.492C244.66 567.384 241.268 570.712 236.34 570.712C231.22 570.712 226.42 566.488 226.42 557.784C226.42 549.144 231.22 545.112 236.34 545.112C240.884 545.112 244.404 547.992 245.236 552.088H251.124C250.292 546.2 245.172 539.992 236.724 539.992ZM282.68 545.624V540.568H253.304V545.624H265.08V575H270.904V545.624H282.68ZM288.584 540.568V575H304.584C311.944 575 317.512 572.12 317.512 564.952C317.512 560.344 314.888 557.912 311.304 556.888C314.504 555.544 316.104 552.984 316.104 549.336C316.104 542.36 310.472 540.568 303.56 540.568H288.584ZM294.408 555.032V545.624H302.984C307.336 545.624 310.024 546.392 310.024 549.976C310.024 553.88 307.464 555.032 303.176 555.032H294.408ZM294.408 559.832H303.496C308.872 559.832 311.432 561.048 311.432 564.888C311.432 568.472 308.808 569.944 303.688 569.944H294.408V559.832ZM327.982 557.912C327.982 548.504 332.974 545.112 338.286 545.112C343.598 545.112 348.59 548.696 348.59 557.912C348.59 566.744 343.598 570.712 338.286 570.712C332.974 570.712 327.982 567.128 327.982 557.912ZM338.286 539.992C330.286 539.992 321.774 545.432 321.774 557.912C321.774 570.392 330.286 575.832 338.286 575.832C346.286 575.832 354.798 570.392 354.798 557.912C354.798 545.432 346.286 539.992 338.286 539.992ZM399.224 545.624V540.568H377.272V575H383.096V545.624H399.224ZM407.295 557.912C407.295 548.504 412.287 545.112 417.599 545.112C422.911 545.112 427.903 548.696 427.903 557.912C427.903 566.744 422.911 570.712 417.599 570.712C412.287 570.712 407.295 567.128 407.295 557.912ZM417.599 539.992C409.599 539.992 401.087 545.432 401.087 557.912C401.087 570.392 409.599 575.832 417.599 575.832C425.599 575.832 434.111 570.392 434.111 557.912C434.111 545.432 425.599 539.992 417.599 539.992ZM441.397 540.568V586.2H447.221V569.816C449.333 573.464 452.917 575.832 458.485 575.832C466.421 575.832 473.205 569.368 473.205 557.912C473.205 546.648 466.421 539.992 458.485 539.992C452.917 539.992 449.333 542.36 447.221 546.008V540.568H441.397ZM446.965 557.912C446.965 548.824 451.829 544.984 457.013 544.984C462.965 544.984 466.869 549.656 466.869 557.912C466.869 566.168 462.965 570.84 457.013 570.84C451.829 570.84 446.965 567 446.965 557.912ZM504.013 575H509.837V540.568H504.013L486.221 566.552V540.568H480.397V575H486.221L504.013 549.016V575ZM538.141 556.952C541.213 555.48 543.581 553.048 543.581 549.528C543.581 543.064 537.309 539.8 530.525 539.8C523.293 539.8 517.725 543.704 516.509 551.192H522.525C523.293 546.52 526.557 544.92 530.845 544.92C534.621 544.92 537.565 546.392 537.565 549.656C537.565 553.24 535.133 555.032 531.101 555.032H525.917V559.832H531.421C536.285 559.832 538.909 561.432 538.909 565.464C538.909 568.728 535.837 570.968 530.973 570.968C526.045 570.968 522.781 568.92 521.821 564.504H515.933C517.149 572.376 523.229 575.832 530.589 575.832C538.269 575.832 545.117 572.632 545.117 565.208C545.117 560.6 541.789 557.976 538.141 556.952ZM555.67 557.912C555.67 548.504 560.662 545.112 565.974 545.112C571.286 545.112 576.278 548.696 576.278 557.912C576.278 566.744 571.286 570.712 565.974 570.712C560.662 570.712 555.67 567.128 555.67 557.912ZM565.974 539.992C557.974 539.992 549.462 545.432 549.462 557.912C549.462 570.392 557.974 575.832 565.974 575.832C573.974 575.832 582.486 570.392 582.486 557.912C582.486 545.432 573.974 539.992 565.974 539.992ZM618.444 575V540.568H612.62V554.904H595.596V540.568H589.772V575H595.596V559.96H612.62V575H618.444ZM653.68 545.624V540.568H624.304V545.624H636.08V575H641.904V545.624H653.68ZM679.148 560.6C679.148 568.728 673.964 571.224 668.524 571.224C664.364 571.224 661.868 569.048 661.868 565.784C661.868 561.048 668.588 559.448 679.148 558.424V560.6ZM667.244 575.832C673.388 575.832 676.908 573.848 679.02 570.264C679.084 572.312 679.276 573.72 679.468 575H685.356C684.652 571.736 684.396 567.832 684.46 562.008L684.524 554.072C684.588 544.344 680.364 539.864 670.828 539.864C664.172 539.864 657.516 544.024 657.004 551.448H663.02C663.276 547.16 666.028 544.6 670.892 544.6C675.244 544.6 678.7 546.648 678.7 552.984V553.816C664.62 555.352 655.404 557.784 655.404 565.912C655.404 572.248 660.78 575.832 667.244 575.832ZM720.722 540.568H697.746L697.234 552.344C696.53 566.616 693.586 569.944 690.514 569.944H689.874V575H690.962C698.962 575 701.97 567.832 702.802 553.944L703.314 545.624H714.898V575H720.722V540.568ZM736.408 552.728V540.568H730.584V575H744.536C752.472 575 757.464 572.12 757.464 563.608C757.464 556.248 753.624 552.728 744.6 552.728H736.408ZM736.408 569.944V557.784H743.896C749.08 557.784 751.768 559.064 751.768 563.608C751.768 568.216 749.144 569.944 744.024 569.944H736.408ZM792.694 575V540.568H786.87V554.904H769.846V540.568H764.022V575H769.846V559.96H786.87V575H792.694ZM806.17 557.912C806.17 548.504 811.162 545.112 816.474 545.112C821.786 545.112 826.778 548.696 826.778 557.912C826.778 566.744 821.786 570.712 816.474 570.712C811.162 570.712 806.17 567.128 806.17 557.912ZM816.474 539.992C808.474 539.992 799.962 545.432 799.962 557.912C799.962 570.392 808.474 575.832 816.474 575.832C824.474 575.832 832.986 570.392 832.986 557.912C832.986 545.432 824.474 539.992 816.474 539.992Z" fill="black"/>
<path d="M827 360C827 389.823 799.803 414 766.254 414L73.7463 414C40.1971 414 13.0001 389.823 13 360L13 53.9999C13 24.1765 40.197 -9.71548e-05 73.7463 -0.000100088L766.254 -0.000160629C799.803 -0.000163562 827 24.1765 827 53.9998L827 360Z" fill="#FF9C9C"/>
<path fill-rule="evenodd" clip-rule="evenodd" d="M766.254 399L73.7463 399C46.7725 399 28 379.928 28 360L28 276.542C28.9471 276.84 29.9548 277 31 277H54C59.5229 277 64 272.523 64 267V148C64 142.477 59.5229 138 54 138H31C29.9548 138 28.9471 138.16 28 138.458L28 53.9999C28 34.0721 46.7725 14.9999 73.7463 14.9999L766.254 14.9999C793.228 14.9999 812 34.072 812 53.9999L812 360C812 379.928 793.228 399 766.254 399ZM827 360C827 389.823 799.803 414 766.254 414L73.7463 414C40.1971 414 13 389.823 13 360L13 53.9999C13 24.1765 40.197 -6.10352e-05 73.7463 -6.10352e-05L766.254 -0.00012207C799.803 -0.00012207 827 24.1765 827 53.9998L827 360Z" fill="#494949"/>
<path fill-rule="evenodd" clip-rule="evenodd" d="M387.197 109.413L377.629 92.8399L357.403 138.451L407.016 143.74L396.8 126.044C412.575 117.03 431.038 113.897 448.911 117.209C466.895 120.542 483.099 130.183 494.61 144.397C506.12 158.612 512.181 176.467 511.702 194.751C511.224 213.035 504.237 230.548 491.998 244.14L506.269 256.991C510.797 251.962 514.75 246.504 518.087 240.719C526.025 226.957 530.479 211.344 530.9 195.253C531.499 172.398 523.922 150.08 509.534 132.312C495.146 114.544 474.89 102.493 452.41 98.3264C436.584 95.3931 420.386 96.5033 405.275 101.407C399.029 103.433 392.969 106.108 387.197 109.413Z" fill="#AD3131"/>
<path fill-rule="evenodd" clip-rule="evenodd" d="M452.532 304.587L462.101 321.16L482.327 275.549L432.713 270.26L442.93 287.956C427.155 296.97 408.691 300.103 390.819 296.791C372.835 293.458 356.63 283.817 345.12 269.603C333.609 255.388 327.548 237.533 328.027 219.249C328.506 200.965 335.493 183.452 347.732 169.859L333.46 157.009C328.932 162.038 324.98 167.496 321.642 173.281C313.705 187.043 309.251 202.656 308.829 218.747C308.231 241.602 315.807 263.92 330.195 281.688C344.583 299.456 364.839 311.507 387.319 315.674C403.146 318.607 419.344 317.497 434.455 312.593C440.701 310.567 446.761 307.892 452.532 304.587Z" fill="#AD3131"/>
</svg>
