<svg width="274" height="58" viewBox="0 0 274 58" fill="none" xmlns="http://www.w3.org/2000/svg">
<path d="M0 29C0 12.9837 12.9837 0 29 0H245C261.016 0 274 12.9837 274 29V29C274 45.0163 261.016 58 245 58H29C12.9837 58 0 45.0163 0 29V29Z" fill="#627CDB"/>
<path d="M39.152 38.312C41.864 38.312 43.496 37.328 44.552 35.024L50.984 20.6H46.52L43.112 29.288L39.2 20.6H34.76L41.144 33.584L40.64 34.256C40.352 34.592 39.776 34.664 39.272 34.664H37.208V38.312H39.152ZM62.1999 38V25.088H58.2399V30.704C57.5919 30.872 57.1599 30.944 56.6079 30.944C55.0959 30.944 54.4719 30.152 54.4719 29.024V25.088H50.5119V29.672C50.5119 32.552 52.1679 33.848 54.9759 33.848C56.1999 33.848 57.0159 33.704 58.2399 33.392V38H62.1999ZM74.2698 33.944C73.8138 34.712 72.8778 35.24 71.3658 35.24C69.9258 35.24 68.5098 34.376 68.3898 32.552H77.9658C78.2298 27.944 75.6138 24.704 71.3178 24.704C67.5498 24.704 64.4058 27.344 64.4058 31.472C64.4058 35.768 67.2858 38.312 71.4858 38.312C74.0538 38.312 76.7658 36.992 77.9178 33.944H74.2698ZM71.3178 27.728C72.8298 27.728 73.9578 28.52 74.0298 30.152H68.4378C68.6538 28.448 69.9018 27.728 71.3178 27.728ZM86.8246 25.88C85.1206 25.88 83.5126 26.504 82.4806 27.872C83.1046 25.136 84.7126 24.416 87.1606 24.152L91.3846 23.72V20.168C90.3286 20.24 89.2006 20.36 87.0886 20.552C81.2326 21.056 79.6486 25.064 79.5286 29.768V30.344C79.5286 35.792 82.4806 38.312 86.0566 38.312C89.3926 38.312 92.6566 36.2 92.6566 31.976C92.6566 28.016 89.8966 25.88 86.8246 25.88ZM86.0566 35.24C84.6886 35.24 83.4886 34.088 83.4886 31.976C83.4886 29.624 84.7366 28.64 86.0566 28.64C87.3766 28.64 88.6246 29.624 88.6246 31.976C88.6246 34.208 87.4246 35.24 86.0566 35.24ZM107.545 38V25.088H103.585V29.984H98.8325V25.088H94.8725V38H98.8325V32.792H103.585V38H107.545ZM116.621 38C120.245 38 121.877 36.872 121.877 33.488C121.877 30.488 120.269 29.096 116.429 29.096H114.653V25.088H110.669V38H116.621ZM114.653 31.76H116.213C117.533 31.76 118.181 32.312 118.181 33.44C118.181 34.784 117.533 35.336 116.213 35.336H114.653V31.76ZM127.517 38V25.088H123.533V38H127.517ZM143.598 25.088H139.758L134.526 32.744V25.088H130.638V38H134.478L139.71 30.44V38H143.598V25.088ZM137.118 23.504C140.022 23.504 141.198 22.04 141.39 20.6H138.798C138.702 21.104 138.198 21.56 137.142 21.56C136.086 21.56 135.606 21.104 135.51 20.6H132.918C133.038 22.04 134.31 23.504 137.118 23.504ZM163.546 25.088H151.474V38H155.434V27.896H159.586V38H163.546V25.088ZM170.622 25.088H166.662V42.2H170.622V36.272C171.462 37.688 173.19 38.312 174.582 38.312C177.918 38.312 180.27 35.768 180.27 31.544C180.27 27.32 177.918 24.8 174.582 24.8C173.19 24.8 171.462 25.424 170.622 26.84V25.088ZM173.286 27.872C174.87 27.872 176.166 29.144 176.166 31.544C176.166 33.944 174.87 35.24 173.286 35.24C171.726 35.24 170.43 34.208 170.43 31.544C170.43 28.88 171.726 27.872 173.286 27.872ZM188.621 27.776C190.181 27.776 191.429 28.736 191.429 31.496C191.429 34.208 190.229 35.24 188.621 35.24C187.013 35.24 185.813 34.208 185.813 31.496C185.813 28.736 187.061 27.776 188.621 27.776ZM188.621 24.704C185.045 24.704 181.781 26.816 181.781 31.496C181.781 36.176 185.045 38.312 188.621 38.312C192.197 38.312 195.461 36.176 195.461 31.496C195.461 26.816 192.197 24.704 188.621 24.704ZM206.903 33.944C206.447 34.712 205.511 35.24 203.999 35.24C202.559 35.24 201.143 34.376 201.023 32.552H210.599C210.863 27.944 208.247 24.704 203.951 24.704C200.183 24.704 197.039 27.344 197.039 31.472C197.039 35.768 199.919 38.312 204.119 38.312C206.687 38.312 209.399 36.992 210.551 33.944H206.903ZM203.951 27.728C205.463 27.728 206.591 28.52 206.663 30.152H201.071C201.287 28.448 202.535 27.728 203.951 27.728ZM221.329 38H225.913L220.849 31.136L225.649 25.088H221.305L216.817 31.16H216.793V25.088H212.833V38H216.793V31.352H216.817L221.329 38ZM238.617 27.896V25.088H226.305V27.896H230.481V38H234.441V27.896H238.617Z" fill="#F5F5FF"/>
</svg>
