<svg width="291" height="58" viewBox="0 0 291 58" fill="none" xmlns="http://www.w3.org/2000/svg">
<path d="M0 29C0 12.9837 12.9837 0 29 0H262C278.016 0 291 12.9837 291 29V29C291 45.0163 278.016 58 262 58H29C12.9837 58 0 45.0163 0 29V29Z" fill="#627CDB"/>
<path d="M36.728 20.6V38H40.832V31.976H43.424C47.936 31.976 51.32 30.848 51.32 26.264C51.32 21.704 47.936 20.6 43.424 20.6H36.728ZM43.544 24.056C45.464 24.056 46.976 24.44 46.976 26.264C46.976 28.088 45.464 28.52 43.544 28.52H40.832V24.056H43.544ZM61.7776 33.944C61.3216 34.712 60.3856 35.24 58.8736 35.24C57.4336 35.24 56.0176 34.376 55.8976 32.552H65.4736C65.7376 27.944 63.1216 24.704 58.8256 24.704C55.0576 24.704 51.9136 27.344 51.9136 31.472C51.9136 35.768 54.7936 38.312 58.9936 38.312C61.5616 38.312 64.2736 36.992 65.4256 33.944H61.7776ZM58.8256 27.728C60.3376 27.728 61.4656 28.52 61.5376 30.152H55.9456C56.1616 28.448 57.4096 27.728 58.8256 27.728ZM75.4604 29.936C70.4444 30.32 66.8684 31.352 66.8684 34.52C66.8684 36.872 68.8844 38.312 71.3324 38.312C73.1804 38.312 74.7164 37.808 75.6764 36.44L75.7244 38H79.6124C79.4204 37.184 79.3244 35.672 79.3244 34.256V32.912L79.3724 30.104C79.4444 26.192 77.3324 24.68 73.6124 24.68C69.7724 24.68 67.4684 26.84 67.2764 29.264H70.9724C71.1404 28.016 72.0044 27.368 73.2764 27.368C74.7164 27.368 75.4604 27.896 75.4604 29.432V29.936ZM75.5564 32.576C75.5564 34.952 74.3564 35.624 72.7724 35.624C71.7404 35.624 70.9484 35.072 70.9484 34.232C70.9484 32.84 72.7964 32.528 75.5564 32.264V32.576ZM94.1008 25.088H83.6848L83.4688 29.12C83.2048 34.136 82.6288 35.192 81.3088 35.192H80.9488V38H81.6928C85.3408 38 86.8288 35.744 87.2128 29.12L87.2848 27.896H90.1408V38H94.1008V25.088ZM101.176 29.096V25.088H97.2163V38H103.936C107.56 38 109.192 36.872 109.192 33.488C109.192 30.488 107.584 29.096 103.744 29.096H101.176ZM101.176 35.336V31.76H103.528C104.848 31.76 105.496 32.312 105.496 33.44C105.496 34.784 104.848 35.336 103.528 35.336H101.176ZM124.021 38V25.088H120.061V29.984H115.309V25.088H111.349V38H115.309V32.792H120.061V38H124.021ZM133.098 38C136.722 38 138.354 36.872 138.354 33.488C138.354 30.488 136.746 29.096 132.906 29.096H131.13V25.088H127.146V38H133.098ZM131.13 31.76H132.69C134.01 31.76 134.658 32.312 134.658 33.44C134.658 34.784 134.01 35.336 132.69 35.336H131.13V31.76ZM143.994 38V25.088H140.01V38H143.994ZM160.075 25.088H156.235L151.003 32.744V25.088H147.115V38H150.955L156.187 30.44V38H160.075V25.088ZM153.595 23.504C156.499 23.504 157.675 22.04 157.867 20.6H155.275C155.179 21.104 154.675 21.56 153.619 21.56C152.563 21.56 152.083 21.104 151.987 20.6H149.395C149.515 22.04 150.787 23.504 153.595 23.504ZM180.023 25.088H167.951V38H171.911V27.896H176.063V38H180.023V25.088ZM187.098 25.088H183.138V42.2H187.098V36.272C187.938 37.688 189.666 38.312 191.058 38.312C194.394 38.312 196.746 35.768 196.746 31.544C196.746 27.32 194.394 24.8 191.058 24.8C189.666 24.8 187.938 25.424 187.098 26.84V25.088ZM189.762 27.872C191.346 27.872 192.642 29.144 192.642 31.544C192.642 33.944 191.346 35.24 189.762 35.24C188.202 35.24 186.906 34.208 186.906 31.544C186.906 28.88 188.202 27.872 189.762 27.872ZM205.097 27.776C206.657 27.776 207.905 28.736 207.905 31.496C207.905 34.208 206.705 35.24 205.097 35.24C203.489 35.24 202.289 34.208 202.289 31.496C202.289 28.736 203.537 27.776 205.097 27.776ZM205.097 24.704C201.521 24.704 198.257 26.816 198.257 31.496C198.257 36.176 201.521 38.312 205.097 38.312C208.673 38.312 211.937 36.176 211.937 31.496C211.937 26.816 208.673 24.704 205.097 24.704ZM223.379 33.944C222.923 34.712 221.987 35.24 220.475 35.24C219.035 35.24 217.619 34.376 217.499 32.552H227.075C227.339 27.944 224.723 24.704 220.427 24.704C216.659 24.704 213.515 27.344 213.515 31.472C213.515 35.768 216.395 38.312 220.595 38.312C223.163 38.312 225.875 36.992 227.027 33.944H223.379ZM220.427 27.728C221.939 27.728 223.067 28.52 223.139 30.152H217.547C217.763 28.448 219.011 27.728 220.427 27.728ZM237.806 38H242.39L237.326 31.136L242.126 25.088H237.782L233.294 31.16H233.27V25.088H229.31V38H233.27V31.352H233.294L237.806 38ZM255.094 27.896V25.088H242.782V27.896H246.958V38H250.918V27.896H255.094Z" fill="#F5F5FF"/>
</svg>
